<svg width="323" height="216" viewBox="0 0 323 216" fill="none" xmlns="http://www.w3.org/2000/svg">
<path d="M315.675 170.437H232.641V115.611L315.71 115.625L315.675 170.437Z" fill="#6E33D5" stroke="#FBF5ED" stroke-miterlimit="10"/>
<path d="M265.291 122.525H226.166V140.469H265.291V122.525Z" fill="#8AFCD0"/>
<mask id="mask0_1363_2053" style="mask-type:luminance" maskUnits="userSpaceOnUse" x="226" y="122" width="40" height="19">
<path d="M265.291 122.525H226.166V140.469H265.291V122.525Z" fill="white"/>
</mask>
<g mask="url(#mask0_1363_2053)">
<path d="M233.294 122.525H225.304V140.469H233.294V122.525Z" fill="#FBF5ED" stroke="#6E33D5" stroke-miterlimit="10"/>
</g>
<path d="M265.291 122.525H226.166V140.469H265.291V122.525Z" stroke="#6E33D5" stroke-miterlimit="10"/>
<path d="M240.572 134.009H237.127V136.119H240.572V134.009Z" fill="#6E33D5"/>
<path d="M244.015 131.899H240.57V134.009H244.015V131.899Z" fill="#6E33D5"/>
<path d="M247.461 129.788H244.016V131.898H247.461V129.788Z" fill="#6E33D5"/>
<path d="M250.905 127.678H247.46V129.788H250.905V127.678Z" fill="#6E33D5"/>
<path d="M254.368 129.777H250.923V131.887H254.368V129.777Z" fill="#6E33D5"/>
<path d="M257.843 131.887H254.398V133.997H257.843V131.887Z" fill="#6E33D5"/>
<path d="M261.32 133.998H257.875V136.108H261.32V133.998Z" fill="#6E33D5"/>
<path d="M322.431 123.175H283.306V140.539H322.431V123.175Z" fill="#8AFCD0"/>
<mask id="mask1_1363_2053" style="mask-type:luminance" maskUnits="userSpaceOnUse" x="283" y="123" width="40" height="18">
<path d="M322.432 123.175H283.307V140.539H322.432V123.175Z" fill="white"/>
</mask>
<g mask="url(#mask1_1363_2053)">
<path d="M323.004 123.175H315.02V140.539H323.004V123.175Z" fill="#FBF5ED" stroke="#6E33D5" stroke-miterlimit="10"/>
</g>
<path d="M322.431 123.175H283.306V140.539H322.431V123.175Z" stroke="#6E33D5" stroke-miterlimit="10"/>
<path d="M290.529 134.009H287.084V136.119H290.529V134.009Z" fill="#6E33D5"/>
<path d="M293.974 131.899H290.529V134.009H293.974V131.899Z" fill="#6E33D5"/>
<path d="M297.419 129.788H293.974V131.898H297.419V129.788Z" fill="#6E33D5"/>
<path d="M300.866 127.678H297.421V129.788H300.866V127.678Z" fill="#6E33D5"/>
<path d="M304.327 129.777H300.882V131.887H304.327V129.777Z" fill="#6E33D5"/>
<path d="M307.803 131.887H304.358V133.997H307.803V131.887Z" fill="#6E33D5"/>
<path d="M311.278 133.998H307.833V136.108H311.278V133.998Z" fill="#6E33D5"/>
<path d="M256.671 165.242L254.645 196.414H271.737V166.393" fill="#6E33D5"/>
<mask id="mask2_1363_2053" style="mask-type:luminance" maskUnits="userSpaceOnUse" x="254" y="165" width="18" height="32">
<path d="M256.671 165.242L254.645 196.414H271.737V166.393" fill="white"/>
</mask>
<g mask="url(#mask2_1363_2053)">
<path d="M274.128 196.414H243.478V213.443H274.128V196.414Z" fill="#F27361" stroke="#FBF5ED" stroke-miterlimit="10"/>
<path d="M263.657 189.916C266.993 189.916 269.697 187.31 269.697 184.095C269.697 180.88 266.993 178.274 263.657 178.274C260.321 178.274 257.617 180.88 257.617 184.095C257.617 187.31 260.321 189.916 263.657 189.916Z" fill="#FBF5ED"/>
</g>
<path d="M256.671 165.242L254.645 196.414H271.737V166.393" stroke="#FBF5ED" stroke-miterlimit="10"/>
<path d="M293.479 198L294.141 209.105L304 215H277V198H293.479Z" fill="#F27361" stroke="#6E33D5" stroke-miterlimit="10"/>
<path d="M291.687 165.193L293.714 196.364H276.622V166.345" fill="#6E33D5"/>
<mask id="mask3_1363_2053" style="mask-type:luminance" maskUnits="userSpaceOnUse" x="276" y="165" width="18" height="32">
<path d="M291.686 165.193L293.713 196.364H276.621V166.344" fill="white"/>
</mask>
<g mask="url(#mask3_1363_2053)">
<path d="M274.23 213.393H304.88V196.364H274.23V213.393Z" fill="#F27361" stroke="#FBF5ED" stroke-miterlimit="10"/>
<path d="M284.702 189.866C288.038 189.866 290.743 187.26 290.743 184.045C290.743 180.83 288.038 178.224 284.702 178.224C281.366 178.224 278.662 180.83 278.662 184.045C278.662 187.26 281.366 189.866 284.702 189.866Z" fill="#FBF5ED"/>
</g>
<path d="M291.687 165.193L293.714 196.364H276.622V166.345" stroke="#FBF5ED" stroke-miterlimit="10"/>
<path d="M254.521 198L253.858 209.105L244 215H271V198H254.521Z" fill="#F27361" stroke="#6E33D5" stroke-miterlimit="10"/>
<path d="M314.994 108.702H233.366V114.368H314.994V108.702Z" fill="#6E33D5"/>
<mask id="mask4_1363_2053" style="mask-type:luminance" maskUnits="userSpaceOnUse" x="233" y="108" width="82" height="7">
<path d="M314.994 108.702H233.366V114.368H314.994V108.702Z" fill="white"/>
</mask>
<g mask="url(#mask4_1363_2053)">
<path d="M284.672 115.779L288.408 118.86L303.418 108.107L299.683 105.026L284.672 115.779Z" fill="#FBF5ED" stroke="#6E33D5" stroke-miterlimit="10"/>
<path d="M266.076 115.801L269.812 118.882L284.096 108.649L280.36 105.569L266.076 115.801Z" fill="#FBF5ED" stroke="#6E33D5" stroke-miterlimit="10"/>
<path d="M247.15 116.208L250.885 119.289L268.233 106.861L264.498 103.78L247.15 116.208Z" fill="#FBF5ED" stroke="#6E33D5" stroke-miterlimit="10"/>
</g>
<path d="M314.994 108.702H233.366V114.368H314.994V108.702Z" stroke="#6E33D5" stroke-miterlimit="10"/>
<path d="M232.817 103.371L314.007 94.1408L314.619 99.6128L233.429 108.843L232.817 103.371Z" fill="#6E33D5"/>
<mask id="mask5_1363_2053" style="mask-type:luminance" maskUnits="userSpaceOnUse" x="232" y="94" width="83" height="15">
<path d="M232.817 103.372L314.007 94.141L314.619 99.6129L233.429 108.844L232.817 103.372Z" fill="white"/>
</mask>
<g mask="url(#mask5_1363_2053)">
<path d="M252.739 94.0277L249.002 98.0366L261.805 109.972L265.542 105.963L252.739 94.0277Z" fill="#FBF5ED" stroke="#6E33D5" stroke-miterlimit="10"/>
<path d="M269.858 92.6731L266.121 96.6819L278.924 108.617L282.661 104.608L269.858 92.6731Z" fill="#FBF5ED" stroke="#6E33D5" stroke-miterlimit="10"/>
<path d="M285.725 90.3473L281.988 94.3561L294.791 106.291L298.528 102.283L285.725 90.3473Z" fill="#FBF5ED" stroke="#6E33D5" stroke-miterlimit="10"/>
</g>
<path d="M232.817 103.371L314.007 94.1408L314.619 99.6128L233.429 108.843L232.817 103.371Z" stroke="#6E33D5" stroke-miterlimit="10"/>
<path d="M256.814 145.342C253.469 148.348 260.583 155.003 270.398 156.606C281.633 158.441 289.004 154.292 287.147 150.884C285.016 146.973 276.643 149.832 271.827 148.936C266.868 148.011 260.356 142.161 256.814 145.344V145.342Z" fill="#6E33D5"/>
<mask id="mask6_1363_2053" style="mask-type:luminance" maskUnits="userSpaceOnUse" x="255" y="144" width="33" height="14">
<path d="M256.814 145.342C253.469 148.348 260.583 155.003 270.398 156.606C281.633 158.441 289.004 154.292 287.147 150.884C285.016 146.973 276.643 149.832 271.827 148.936C266.868 148.011 260.356 142.161 256.814 145.344V145.342Z" fill="white"/>
</mask>
<g mask="url(#mask6_1363_2053)">
<path d="M262.968 144.959L257.329 152.412" stroke="#FBF5ED" stroke-miterlimit="10"/>
<path d="M267.742 146.87L262.952 155.274" stroke="#FBF5ED" stroke-miterlimit="10"/>
<path d="M271.833 148.709L270.096 158.024" stroke="#FBF5ED" stroke-miterlimit="10"/>
<path d="M281.726 148.414L284.3 157.399" stroke="#FBF5ED" stroke-miterlimit="10"/>
<path d="M276.583 148.476L278.025 158.042" stroke="#FBF5ED" stroke-miterlimit="10"/>
</g>
<path d="M256.814 145.342C253.469 148.348 260.583 155.003 270.398 156.606C281.633 158.441 289.004 154.292 287.147 150.884C285.016 146.973 276.643 149.832 271.827 148.936C266.868 148.011 260.356 142.161 256.814 145.344V145.342Z" stroke="#FBF5ED" stroke-miterlimit="10"/>
<path d="M7.03662 129.502V107.232H108.031V129.502L103.628 129.417V111.253H11.6862V129.502H7.03662Z" fill="#9179D1"/>
<mask id="mask7_1363_2053" style="mask-type:luminance" maskUnits="userSpaceOnUse" x="7" y="107" width="102" height="23">
<path d="M7.03564 129.501V107.232H108.03V129.501L103.627 129.416V111.253H11.6852V129.501H7.03564Z" fill="white"/>
</mask>
<g mask="url(#mask7_1363_2053)">
<path d="M111.114 107.273H98.5356V115.42H111.114V107.273Z" fill="#8AFCD0" stroke="#6E33D5" stroke-miterlimit="10"/>
<path d="M98.535 106.272H93.6753V112.704H98.535V106.272Z" fill="#8AFCD0" stroke="#6E33D5" stroke-miterlimit="10"/>
<path d="M4.3447 115.42H16.9229V107.273H4.3447L4.3447 115.42Z" fill="#8AFCD0" stroke="#6E33D5" stroke-miterlimit="10"/>
<path d="M16.9235 112.704H21.7832V106.272H16.9235V112.704Z" fill="#8AFCD0" stroke="#6E33D5" stroke-miterlimit="10"/>
</g>
<path d="M7.03662 129.502V107.232H108.031V129.502L103.628 129.417V111.253H11.6862V129.502H7.03662Z" stroke="#6E33D5" stroke-miterlimit="10"/>
<path d="M113.726 127.454H98.4614V153.433H113.726V127.454Z" fill="#9179D1" stroke="#6E33D5" stroke-miterlimit="10"/>
<path d="M16.5374 127.454H1.27246V153.433H16.5374V127.454Z" fill="#9179D1" stroke="#6E33D5" stroke-miterlimit="10"/>
<path d="M98.831 171.444H16.2021V115.354L98.8658 115.368L98.831 171.444Z" fill="#6E33D5" stroke="#FBF5ED" stroke-miterlimit="10"/>
<path d="M58.1535 156.745C62.1042 156.745 65.3069 154.34 65.3069 151.372C65.3069 148.405 62.1042 146 58.1535 146C54.2027 146 51 148.405 51 151.372C51 154.34 54.2027 156.745 58.1535 156.745Z" fill="#6E33D5"/>
<mask id="mask8_1363_2053" style="mask-type:luminance" maskUnits="userSpaceOnUse" x="51" y="146" width="15" height="11">
<path d="M58.1535 156.745C62.1042 156.745 65.3069 154.34 65.3069 151.372C65.3069 148.405 62.1042 146 58.1535 146C54.2027 146 51 148.405 51 151.372C51 154.34 54.2027 156.745 58.1535 156.745Z" fill="white"/>
</mask>
<g mask="url(#mask8_1363_2053)">
<path d="M62.3551 147.025L62.7416 155.494L58.3391 159.51L58.2858 145.415L54.8283 144.617L53.7646 157.329" stroke="#FBF3ED" stroke-miterlimit="10"/>
</g>
<path d="M58.1535 156.745C62.1042 156.745 65.3069 154.34 65.3069 151.372C65.3069 148.405 62.1042 146 58.1535 146C54.2027 146 51 148.405 51 151.372C51 154.34 54.2027 156.745 58.1535 156.745Z" stroke="#FBF3ED" stroke-miterlimit="10"/>
<path d="M78.4209 160.642V156.387H103.341L103.354 154.238H107.889L107.87 160.642H78.4209Z" fill="#6E33D5"/>
<path d="M107.615 154.51L107.598 160.37H78.6923V156.658H103.611L103.624 154.51H107.615ZM108.162 153.965H103.083L103.08 154.507L103.07 156.113H78.1479V160.914H108.141L108.143 160.372L108.161 154.512L108.163 153.965H108.162Z" fill="#FBF5ED"/>
<path d="M48.6928 123.766H9.75977V141.621H48.6928V123.766Z" fill="#F27361"/>
<mask id="mask9_1363_2053" style="mask-type:luminance" maskUnits="userSpaceOnUse" x="9" y="123" width="40" height="19">
<path d="M48.6923 123.766H9.75928V141.621H48.6923V123.766Z" fill="white"/>
</mask>
<g mask="url(#mask9_1363_2053)">
<path d="M16.2097 123.765H8.90381V141.621H16.2097V123.765Z" fill="#EFA39C" stroke="#FBF5ED" stroke-miterlimit="10"/>
</g>
<path d="M48.6928 123.766H9.75977V141.621H48.6928V123.766Z" stroke="#FBF5ED" stroke-miterlimit="10"/>
<path d="M105.552 124.412H66.6187V141.691H105.552V124.412Z" fill="#F27361"/>
<mask id="mask10_1363_2053" style="mask-type:luminance" maskUnits="userSpaceOnUse" x="66" y="124" width="40" height="18">
<path d="M105.553 124.412H66.6201V141.691H105.553V124.412Z" fill="white"/>
</mask>
<g mask="url(#mask10_1363_2053)">
<path d="M106.126 124.412H98.8213V141.691H106.126V124.412Z" fill="#EFA39C" stroke="#FBF5ED" stroke-miterlimit="10"/>
</g>
<path d="M105.552 124.412H66.6187V141.691H105.552V124.412Z" stroke="#FBF5ED" stroke-miterlimit="10"/>
<path d="M92.3577 154.13H76.9219V162.5H92.3577V154.13Z" fill="#9179D1"/>
<path d="M92.0857 154.402V162.228H77.1942V154.402H92.0857ZM92.63 153.858H76.6499V162.773H92.63V153.858Z" fill="#FBF5ED"/>
<path d="M40.2378 165.746L38.2217 196.764H55.2295V166.891" fill="#6E33D5"/>
<mask id="mask11_1363_2053" style="mask-type:luminance" maskUnits="userSpaceOnUse" x="38" y="165" width="18" height="32">
<path d="M40.2393 165.746L38.2231 196.765H55.231V166.891" fill="white"/>
</mask>
<g mask="url(#mask11_1363_2053)">
<path d="M57.6098 196.764H27.1094V213.71H57.6098V196.764Z" fill="#F27361" stroke="#FBF5ED" stroke-miterlimit="10"/>
<path d="M47.1902 190.299C50.5102 190.299 53.2017 187.705 53.2017 184.506C53.2017 181.307 50.5102 178.714 47.1902 178.714C43.8701 178.714 41.1787 181.307 41.1787 184.506C41.1787 187.705 43.8701 190.299 47.1902 190.299Z" fill="#FBF5ED"/>
</g>
<path d="M40.2378 165.746L38.2217 196.764H55.2295V166.891" stroke="#FBF5ED" stroke-miterlimit="10"/>
<path d="M77.2043 198.428L77.864 208.951L87.4506 214.536H60.1616V198.428H77.2043Z" fill="#8AFCD0" stroke="#6E33D5" stroke-miterlimit="10"/>
<path d="M75.081 165.697L77.0983 196.715H60.0894V166.842" fill="#6E33D5"/>
<mask id="mask12_1363_2053" style="mask-type:luminance" maskUnits="userSpaceOnUse" x="60" y="165" width="18" height="32">
<path d="M75.081 165.697L77.0983 196.715H60.0894V166.842" fill="white"/>
</mask>
<g mask="url(#mask12_1363_2053)">
<path d="M57.7115 213.66H88.2119V196.714H57.7115V213.66Z" fill="#F27361" stroke="#FBF5ED" stroke-miterlimit="10"/>
<path d="M68.1321 190.25C71.4521 190.25 74.1435 187.657 74.1435 184.457C74.1435 181.258 71.4521 178.665 68.1321 178.665C64.812 178.665 62.1206 181.258 62.1206 184.457C62.1206 187.657 64.812 190.25 68.1321 190.25Z" fill="#FBF5ED"/>
</g>
<path d="M75.081 165.697L77.0983 196.715H60.0894V166.842" stroke="#FBF5ED" stroke-miterlimit="10"/>
<path d="M38.0744 198.428L37.4147 208.951L27.8281 214.537H55.1171V198.428H38.0744Z" fill="#8AFCD0" stroke="#6E33D5" stroke-miterlimit="10"/>
<path d="M30.0311 127.773H28.144V129.66H30.0311V127.773Z" fill="#FBF3ED"/>
<path d="M31.9188 127.773H30.0317V129.66H31.9188V127.773Z" fill="#FBF3ED"/>
<path d="M33.8035 129.66H31.9165V131.547H33.8035V129.66Z" fill="#FBF3ED"/>
<path d="M35.6917 127.773H33.8047V129.66H35.6917V127.773Z" fill="#FBF3ED"/>
<path d="M37.578 127.773H35.6909V129.66H37.578V127.773Z" fill="#FBF3ED"/>
<path d="M28.1444 129.66H26.2573V131.547H28.1444V129.66Z" fill="#FBF3ED"/>
<path d="M28.1444 131.547H26.2573V133.434H28.1444V131.547Z" fill="#FBF3ED"/>
<path d="M30.0311 133.433H28.144V135.32H30.0311V133.433Z" fill="#FBF3ED"/>
<path d="M31.9188 135.321H30.0317V137.208H31.9188V135.321Z" fill="#FBF3ED"/>
<path d="M33.8035 137.208H31.9165V139.095H33.8035V137.208Z" fill="#FBF3ED"/>
<path d="M37.5778 131.547H39.4648V129.66H37.5778V131.547Z" fill="#FBF3ED"/>
<path d="M37.5778 133.433H39.4648V131.546H37.5778V133.433Z" fill="#FBF3ED"/>
<path d="M35.6921 135.321H37.5791V133.434H35.6921V135.321Z" fill="#FBF3ED"/>
<path d="M33.8039 137.208H35.6909V135.321H33.8039V137.208Z" fill="#FBF3ED"/>
<path d="M78.8021 127.773H76.915V129.66H78.8021V127.773Z" fill="#FBF3ED"/>
<path d="M80.6903 127.773H78.8032V129.66H80.6903V127.773Z" fill="#FBF3ED"/>
<path d="M82.575 129.66H80.688V131.547H82.575V129.66Z" fill="#FBF3ED"/>
<path d="M84.4627 127.773H82.5757V129.66H84.4627V127.773Z" fill="#FBF3ED"/>
<path d="M86.3494 127.773H84.4624V129.66H86.3494V127.773Z" fill="#FBF3ED"/>
<path d="M76.9158 129.66H75.0288V131.547H76.9158V129.66Z" fill="#FBF3ED"/>
<path d="M76.9158 131.547H75.0288V133.434H76.9158V131.547Z" fill="#FBF3ED"/>
<path d="M78.8021 133.433H76.915V135.32H78.8021V133.433Z" fill="#FBF3ED"/>
<path d="M80.6903 135.321H78.8032V137.208H80.6903V135.321Z" fill="#FBF3ED"/>
<path d="M82.575 137.208H80.688V139.095H82.575V137.208Z" fill="#FBF3ED"/>
<path d="M86.3493 131.547H88.2363V129.66H86.3493V131.547Z" fill="#FBF3ED"/>
<path d="M86.3493 133.433H88.2363V131.546H86.3493V133.433Z" fill="#FBF3ED"/>
<path d="M84.4631 135.321H86.3501V133.434H84.4631V135.321Z" fill="#FBF3ED"/>
<path d="M82.5754 137.208H84.4624V135.321H82.5754V137.208Z" fill="#FBF3ED"/>
<path d="M237.368 33.8821L237.318 131.961H92.917V33.8904L237.368 33.8821Z" fill="#FBF5ED" stroke="#6E33D5" stroke-miterlimit="10"/>
<path d="M137.127 96.2808C132.149 102.766 147.081 112.293 165.159 111.888C185.854 111.424 197.645 101.55 193.19 96.077C188.078 89.7953 174.065 97.6984 165.159 97.6984C156.252 97.6984 142.396 89.4123 137.127 96.2786V96.2808Z" fill="#FBF5ED"/>
<mask id="mask13_1363_2053" style="mask-type:luminance" maskUnits="userSpaceOnUse" x="136" y="93" width="59" height="19">
<path d="M137.127 96.2807C132.149 102.766 147.081 112.293 165.159 111.888C185.854 111.424 197.645 101.55 193.19 96.0769C188.078 89.7952 174.065 97.6983 165.159 97.6983C156.252 97.6983 142.396 89.4122 137.127 96.2785V96.2807Z" fill="white"/>
</mask>
<g mask="url(#mask13_1363_2053)">
<path d="M148 93.5439L140.403 108.746" stroke="#6E33D5" stroke-miterlimit="10"/>
<path d="M157.17 95.367L151.406 111.988" stroke="#6E33D5" stroke-miterlimit="10"/>
<path d="M165.093 97.293V114.521" stroke="#6E33D5" stroke-miterlimit="10"/>
<path d="M182.677 93.4702L190.276 108.672" stroke="#6E33D5" stroke-miterlimit="10"/>
<path d="M173.509 95.293L179.271 111.915" stroke="#6E33D5" stroke-miterlimit="10"/>
</g>
<path d="M137.127 96.2808C132.149 102.766 147.081 112.293 165.159 111.888C185.854 111.424 197.645 101.55 193.19 96.077C188.078 89.7953 174.065 97.6984 165.159 97.6984C156.252 97.6984 142.396 89.4123 137.127 96.2786V96.2808Z" stroke="#6E33D5" stroke-miterlimit="10"/>
<path d="M149.454 52.42H81.4146V83.6256H149.454V52.42Z" fill="#6E33D5"/>
<mask id="mask14_1363_2053" style="mask-type:luminance" maskUnits="userSpaceOnUse" x="81" y="52" width="69" height="32">
<path d="M149.453 52.4199H81.4141V83.6255H149.453V52.4199Z" fill="white"/>
</mask>
<g mask="url(#mask14_1363_2053)">
<path d="M92.9661 52.4199H81.4141V83.6255H92.9661V52.4199Z" fill="#9179D1" stroke="#FBF5ED" stroke-miterlimit="10"/>
</g>
<path d="M149.454 52.42H81.4146V83.6256H149.454V52.42Z" stroke="#6E33D5" stroke-miterlimit="10"/>
<path d="M248.82 52.5423H180.781V83.7479H248.82V52.5423Z" fill="#6E33D5"/>
<mask id="mask15_1363_2053" style="mask-type:luminance" maskUnits="userSpaceOnUse" x="180" y="52" width="69" height="32">
<path d="M248.82 52.5423H180.781V83.7479H248.82V52.5423Z" fill="white"/>
</mask>
<g mask="url(#mask15_1363_2053)">
<path d="M248.82 52.5423H237.368V83.7479H248.82V52.5423Z" fill="#9179D1" stroke="#FBF5ED" stroke-miterlimit="10"/>
</g>
<path d="M248.82 52.5423H180.781V83.7479H248.82V52.5423Z" stroke="#6E33D5" stroke-miterlimit="10"/>
<path d="M106.464 71.6423H100.473V75.3126H106.464V71.6423Z" fill="#8AFCD0"/>
<path d="M112.454 67.972H106.464V71.6423H112.454V67.972Z" fill="#8AFCD0"/>
<path d="M118.445 64.3018H112.454V67.972H118.445V64.3018Z" fill="#8AFCD0"/>
<path d="M124.435 60.6314H118.444V64.3017H124.435V60.6314Z" fill="#8AFCD0"/>
<path d="M130.457 64.2831H124.466V67.9534H130.457V64.2831Z" fill="#8AFCD0"/>
<path d="M136.502 67.9534H130.511V71.6236H136.502V67.9534Z" fill="#8AFCD0"/>
<path d="M142.546 71.6216H136.556V75.2919H142.546V71.6216Z" fill="#8AFCD0"/>
<path d="M193.344 71.6423H187.353V75.3126H193.344V71.6423Z" fill="#8AFCD0"/>
<path d="M199.334 67.972H193.343V71.6423H199.334V67.972Z" fill="#8AFCD0"/>
<path d="M205.325 64.3018H199.334V67.972H205.325V64.3018Z" fill="#8AFCD0"/>
<path d="M211.315 60.6315H205.325V64.3017H211.315V60.6315Z" fill="#8AFCD0"/>
<path d="M217.337 64.2811H211.346V67.9513H217.337V64.2811Z" fill="#8AFCD0"/>
<path d="M223.381 67.9513H217.391V71.6216H223.381V67.9513Z" fill="#8AFCD0"/>
<path d="M229.426 71.6215H223.435V75.2917H229.426V71.6215Z" fill="#8AFCD0"/>
<path d="M237.37 24.2937H92.9707V33.8385H237.37V24.2937Z" fill="#FBF5ED" stroke="#6E33D5" stroke-miterlimit="10"/>
<path d="M123.44 15.6054H115.486V33.8386H123.44V15.6054Z" fill="#6E33D5"/>
<path d="M135.311 15.6054H127.357V33.8386H135.311V15.6054Z" fill="#6E33D5"/>
<path d="M203.84 24.2792V12.7085L214.133 1.5318L224.887 12.9055V24.2792H203.84Z" fill="#FBF5ED"/>
<mask id="mask16_1363_2053" style="mask-type:luminance" maskUnits="userSpaceOnUse" x="203" y="1" width="22" height="24">
<path d="M203.84 24.2791V12.7084L214.133 1.53174L224.887 12.9054V24.2791H203.84Z" fill="white"/>
</mask>
<g mask="url(#mask16_1363_2053)">
<path d="M227.534 12.9116H201.419V25.3615H227.534V12.9116Z" fill="#8AFCD0" stroke="#6E33D5" stroke-miterlimit="10"/>
<path d="M220.269 -1.00024H207.543V5.6021H220.269V-1.00024Z" fill="#6E33D5"/>
</g>
<path d="M203.84 24.2792V12.7085L214.133 1.5318L224.887 12.9055V24.2792H203.84Z" stroke="#6E33D5" stroke-miterlimit="10"/>
<path d="M133.454 124.082L129.781 180.564H160.753V126.168" fill="#FBF5ED"/>
<mask id="mask17_1363_2053" style="mask-type:luminance" maskUnits="userSpaceOnUse" x="129" y="124" width="32" height="57">
<path d="M133.454 124.082L129.781 180.564H160.753V126.168" fill="white"/>
</mask>
<g mask="url(#mask17_1363_2053)">
<path d="M165.084 180.564H109.545V211.422H165.084V180.564Z" fill="#F27361" stroke="#FBF5ED" stroke-miterlimit="10"/>
<path d="M146.111 168.79C152.157 168.79 157.058 164.069 157.058 158.244C157.058 152.42 152.157 147.698 146.111 147.698C140.065 147.698 135.165 152.42 135.165 158.244C135.165 164.069 140.065 168.79 146.111 168.79Z" fill="#FBF5ED" stroke="#6E33D5" stroke-miterlimit="10"/>
</g>
<path d="M133.454 124.082L129.781 180.564H160.753V126.168" stroke="#6E33D5" stroke-miterlimit="10"/>
<path d="M201.731 184.931L202.932 204.091L220.788 214.265H169.026V184.931H201.731Z" fill="#F27361" stroke="#6E33D5" stroke-miterlimit="10"/>
<path d="M196.9 123.992L200.572 180.475H169.601V126.078" fill="#FBF5ED"/>
<mask id="mask18_1363_2053" style="mask-type:luminance" maskUnits="userSpaceOnUse" x="169" y="123" width="32" height="58">
<path d="M196.9 123.992L200.572 180.475H169.601V126.078" fill="white"/>
</mask>
<g mask="url(#mask18_1363_2053)">
<path d="M165.268 211.333H220.808V180.475H165.268V211.333Z" fill="#F27361" stroke="#FBF5ED" stroke-miterlimit="10"/>
<path d="M184.244 168.699C190.29 168.699 195.191 163.978 195.191 158.153C195.191 152.328 190.29 147.607 184.244 147.607C178.199 147.607 173.298 152.328 173.298 158.153C173.298 163.978 178.199 168.699 184.244 168.699Z" fill="#FBF5ED" stroke="#6E33D5" stroke-miterlimit="10"/>
</g>
<path d="M196.9 123.992L200.572 180.475H169.601V126.078" stroke="#6E33D5" stroke-miterlimit="10"/>
<path d="M128.608 184.931L127.407 204.091L110.854 214.265H161.313V184.931H128.608Z" fill="#F27361" stroke="#6E33D5" stroke-miterlimit="10"/>
</svg>
