<svg width="323" height="217" viewBox="0 0 323 217" fill="none" xmlns="http://www.w3.org/2000/svg">
<g clip-path="url(#clip0_999_732)">
<path d="M314.675 172.437H231.641V117.611L314.71 117.625L314.675 172.437Z" fill="#6E33D5" stroke="#FBF5ED" stroke-width="0.6084" stroke-miterlimit="10"/>
<path d="M264.291 124.525H225.166V142.469H264.291V124.525Z" fill="#8AFCD0"/>
<mask id="mask0_999_732" style="mask-type:luminance" maskUnits="userSpaceOnUse" x="225" y="124" width="40" height="19">
<path d="M264.291 124.525H225.166V142.469H264.291V124.525Z" fill="white"/>
</mask>
<g mask="url(#mask0_999_732)">
<path d="M232.294 124.525H224.304V142.469H232.294V124.525Z" fill="#FBF5ED" stroke="#6E33D5" stroke-width="0.6084" stroke-miterlimit="10"/>
</g>
<path d="M264.291 124.525H225.166V142.469H264.291V124.525Z" stroke="#6E33D5" stroke-width="0.6084" stroke-miterlimit="10"/>
<path d="M239.572 136.009H236.127V138.119H239.572V136.009Z" fill="#6E33D5"/>
<path d="M243.015 133.899H239.57V136.009H243.015V133.899Z" fill="#6E33D5"/>
<path d="M246.461 131.788H243.016V133.898H246.461V131.788Z" fill="#6E33D5"/>
<path d="M249.905 129.678H246.46V131.788H249.905V129.678Z" fill="#6E33D5"/>
<path d="M253.368 131.777H249.923V133.887H253.368V131.777Z" fill="#6E33D5"/>
<path d="M256.843 133.887H253.398V135.997H256.843V133.887Z" fill="#6E33D5"/>
<path d="M260.32 135.998H256.875V138.108H260.32V135.998Z" fill="#6E33D5"/>
<path d="M321.431 125.175H282.306V142.539H321.431V125.175Z" fill="#8AFCD0"/>
<mask id="mask1_999_732" style="mask-type:luminance" maskUnits="userSpaceOnUse" x="282" y="125" width="40" height="18">
<path d="M321.432 125.175H282.307V142.539H321.432V125.175Z" fill="white"/>
</mask>
<g mask="url(#mask1_999_732)">
<path d="M322.004 125.175H314.02V142.539H322.004V125.175Z" fill="#FBF5ED" stroke="#6E33D5" stroke-width="0.6084" stroke-miterlimit="10"/>
</g>
<path d="M321.431 125.175H282.306V142.539H321.431V125.175Z" stroke="#6E33D5" stroke-width="0.6084" stroke-miterlimit="10"/>
<path d="M289.529 136.009H286.084V138.119H289.529V136.009Z" fill="#6E33D5"/>
<path d="M292.974 133.899H289.529V136.009H292.974V133.899Z" fill="#6E33D5"/>
<path d="M296.419 131.788H292.974V133.898H296.419V131.788Z" fill="#6E33D5"/>
<path d="M299.866 129.678H296.421V131.788H299.866V129.678Z" fill="#6E33D5"/>
<path d="M303.327 131.777H299.882V133.887H303.327V131.777Z" fill="#6E33D5"/>
<path d="M306.803 133.887H303.358V135.997H306.803V133.887Z" fill="#6E33D5"/>
<path d="M310.278 135.998H306.833V138.108H310.278V135.998Z" fill="#6E33D5"/>
<path d="M255.671 167.242L253.645 198.414H270.737V168.393" fill="#6E33D5"/>
<mask id="mask2_999_732" style="mask-type:luminance" maskUnits="userSpaceOnUse" x="253" y="167" width="18" height="32">
<path d="M255.671 167.242L253.645 198.414H270.737V168.393" fill="white"/>
</mask>
<g mask="url(#mask2_999_732)">
<path d="M273.128 198.414H242.478V215.443H273.128V198.414Z" fill="#F27361" stroke="#FBF5ED" stroke-width="0.6084" stroke-miterlimit="10"/>
<path d="M262.657 191.916C265.993 191.916 268.697 189.31 268.697 186.095C268.697 182.88 265.993 180.274 262.657 180.274C259.321 180.274 256.617 182.88 256.617 186.095C256.617 189.31 259.321 191.916 262.657 191.916Z" fill="#FBF5ED"/>
</g>
<path d="M255.671 167.242L253.645 198.414H270.737V168.393" stroke="#FBF5ED" stroke-width="0.6084" stroke-miterlimit="10"/>
<path d="M292.492 199.674L293.154 210.25L303.007 215.863H276.021V199.674H292.492Z" fill="#F27361" stroke="#6E33D5" stroke-width="0.6084" stroke-miterlimit="10"/>
<path d="M290.687 167.193L292.714 198.364H275.622V168.345" fill="#6E33D5"/>
<mask id="mask3_999_732" style="mask-type:luminance" maskUnits="userSpaceOnUse" x="275" y="167" width="18" height="32">
<path d="M290.686 167.193L292.713 198.364H275.621V168.344" fill="white"/>
</mask>
<g mask="url(#mask3_999_732)">
<path d="M273.23 215.393H303.88V198.364H273.23V215.393Z" fill="#F27361" stroke="#FBF5ED" stroke-width="0.6084" stroke-miterlimit="10"/>
<path d="M283.702 191.866C287.038 191.866 289.743 189.26 289.743 186.045C289.743 182.83 287.038 180.224 283.702 180.224C280.366 180.224 277.662 182.83 277.662 186.045C277.662 189.26 280.366 191.866 283.702 191.866Z" fill="#FBF5ED"/>
</g>
<path d="M290.687 167.193L292.714 198.364H275.622V168.345" stroke="#FBF5ED" stroke-width="0.6084" stroke-miterlimit="10"/>
<path d="M253.716 199.675L253.053 210.25L243.201 215.863H270.186V199.675H253.716Z" fill="#F27361" stroke="#6E33D5" stroke-width="0.6084" stroke-miterlimit="10"/>
<path d="M313.994 110.702H232.366V116.368H313.994V110.702Z" fill="#6E33D5"/>
<mask id="mask4_999_732" style="mask-type:luminance" maskUnits="userSpaceOnUse" x="232" y="110" width="82" height="7">
<path d="M313.994 110.702H232.366V116.368H313.994V110.702Z" fill="white"/>
</mask>
<g mask="url(#mask4_999_732)">
<path d="M283.672 117.779L287.408 120.86L302.418 110.107L298.683 107.026L283.672 117.779Z" fill="#FBF5ED" stroke="#6E33D5" stroke-width="0.48672" stroke-miterlimit="10"/>
<path d="M265.076 117.801L268.812 120.882L283.096 110.649L279.36 107.569L265.076 117.801Z" fill="#FBF5ED" stroke="#6E33D5" stroke-width="0.48672" stroke-miterlimit="10"/>
<path d="M246.15 118.208L249.885 121.289L267.233 108.861L263.498 105.78L246.15 118.208Z" fill="#FBF5ED" stroke="#6E33D5" stroke-width="0.48672" stroke-miterlimit="10"/>
</g>
<path d="M313.994 110.702H232.366V116.368H313.994V110.702Z" stroke="#6E33D5" stroke-width="0.48672" stroke-miterlimit="10"/>
<path d="M231.817 105.372L313.007 96.1409L313.619 101.613L232.429 110.843L231.817 105.372Z" fill="#6E33D5"/>
<mask id="mask5_999_732" style="mask-type:luminance" maskUnits="userSpaceOnUse" x="231" y="96" width="83" height="15">
<path d="M231.817 105.372L313.007 96.141L313.619 101.613L232.429 110.844L231.817 105.372Z" fill="white"/>
</mask>
<g mask="url(#mask5_999_732)">
<path d="M251.739 96.0277L248.002 100.036L260.805 111.972L264.542 107.963L251.739 96.0277Z" fill="#FBF5ED" stroke="#6E33D5" stroke-width="0.48672" stroke-miterlimit="10"/>
<path d="M268.858 94.6731L265.121 98.6819L277.924 110.617L281.661 106.608L268.858 94.6731Z" fill="#FBF5ED" stroke="#6E33D5" stroke-width="0.48672" stroke-miterlimit="10"/>
<path d="M284.725 92.3473L280.988 96.3561L293.791 108.291L297.528 104.283L284.725 92.3473Z" fill="#FBF5ED" stroke="#6E33D5" stroke-width="0.48672" stroke-miterlimit="10"/>
</g>
<path d="M231.817 105.372L313.007 96.1409L313.619 101.613L232.429 110.843L231.817 105.372Z" stroke="#6E33D5" stroke-width="0.48672" stroke-miterlimit="10"/>
<path d="M255.814 147.342C252.469 150.348 259.583 157.003 269.398 158.606C280.633 160.441 288.004 156.292 286.147 152.884C284.016 148.973 275.643 151.832 270.827 150.936C265.868 150.011 259.356 144.161 255.814 147.344V147.342Z" fill="#6E33D5"/>
<mask id="mask6_999_732" style="mask-type:luminance" maskUnits="userSpaceOnUse" x="254" y="146" width="33" height="14">
<path d="M255.814 147.342C252.469 150.348 259.583 157.003 269.398 158.606C280.633 160.441 288.004 156.292 286.147 152.884C284.016 148.973 275.643 151.832 270.827 150.936C265.868 150.011 259.356 144.161 255.814 147.344V147.342Z" fill="white"/>
</mask>
<g mask="url(#mask6_999_732)">
<path d="M261.968 146.959L256.329 154.412" stroke="#FBF5ED" stroke-width="0.48672" stroke-miterlimit="10"/>
<path d="M266.742 148.87L261.952 157.274" stroke="#FBF5ED" stroke-width="0.48672" stroke-miterlimit="10"/>
<path d="M270.833 150.709L269.096 160.024" stroke="#FBF5ED" stroke-width="0.48672" stroke-miterlimit="10"/>
<path d="M280.726 150.414L283.3 159.399" stroke="#FBF5ED" stroke-width="0.48672" stroke-miterlimit="10"/>
<path d="M275.583 150.476L277.025 160.042" stroke="#FBF5ED" stroke-width="0.48672" stroke-miterlimit="10"/>
</g>
<path d="M255.814 147.342C252.469 150.348 259.583 157.003 269.398 158.606C280.633 160.441 288.004 156.292 286.147 152.884C284.016 148.973 275.643 151.832 270.827 150.936C265.868 150.011 259.356 144.161 255.814 147.344V147.342Z" stroke="#FBF5ED" stroke-width="0.48672" stroke-miterlimit="10"/>
</g>
<g clip-path="url(#clip1_999_732)">
<path d="M6.03662 130.502V108.232H107.031V130.502L102.628 130.417V112.253H10.6862V130.502H6.03662Z" fill="#9179D1"/>
<mask id="mask7_999_732" style="mask-type:luminance" maskUnits="userSpaceOnUse" x="6" y="108" width="102" height="23">
<path d="M6.03564 130.501V108.232H107.03V130.501L102.627 130.416V112.253H10.6852V130.501H6.03564Z" fill="white"/>
</mask>
<g mask="url(#mask7_999_732)">
<path d="M110.114 108.272H97.5356V116.42H110.114V108.272Z" fill="#8AFCD0" stroke="#6E33D5" stroke-width="0.54432" stroke-miterlimit="10"/>
<path d="M97.535 107.272H92.6753V113.704H97.535V107.272Z" fill="#8AFCD0" stroke="#6E33D5" stroke-width="0.54432" stroke-miterlimit="10"/>
<path d="M3.3447 116.42H15.9229L15.9229 108.273H3.3447L3.3447 116.42Z" fill="#8AFCD0" stroke="#6E33D5" stroke-width="0.54432" stroke-miterlimit="10"/>
<path d="M15.9235 113.704H20.7832V107.272H15.9235V113.704Z" fill="#8AFCD0" stroke="#6E33D5" stroke-width="0.54432" stroke-miterlimit="10"/>
</g>
<path d="M6.03662 130.502V108.232H107.031V130.502L102.628 130.417V112.253H10.6862V130.502H6.03662Z" stroke="#6E33D5" stroke-width="0.54432" stroke-miterlimit="10"/>
<path d="M112.726 128.454H97.4614V154.433H112.726V128.454Z" fill="#9179D1" stroke="#6E33D5" stroke-width="0.54432" stroke-miterlimit="10"/>
<path d="M15.5374 128.454H0.272461V154.433H15.5374V128.454Z" fill="#9179D1" stroke="#6E33D5" stroke-width="0.54432" stroke-miterlimit="10"/>
<path d="M97.831 172.444H15.2021V116.354L97.8658 116.368L97.831 172.444Z" fill="#6E33D5" stroke="#FBF5ED" stroke-width="0.54432" stroke-miterlimit="10"/>
<path d="M57.1535 157.745C61.1042 157.745 64.3069 155.34 64.3069 152.372C64.3069 149.405 61.1042 147 57.1535 147C53.2027 147 50 149.405 50 152.372C50 155.34 53.2027 157.745 57.1535 157.745Z" fill="#6E33D5"/>
<mask id="mask8_999_732" style="mask-type:luminance" maskUnits="userSpaceOnUse" x="50" y="147" width="15" height="11">
<path d="M57.1535 157.745C61.1042 157.745 64.3069 155.34 64.3069 152.372C64.3069 149.405 61.1042 147 57.1535 147C53.2027 147 50 149.405 50 152.372C50 155.34 53.2027 157.745 57.1535 157.745Z" fill="white"/>
</mask>
<g mask="url(#mask8_999_732)">
<path d="M61.3551 148.025L61.7416 156.494L57.3391 160.51L57.2858 146.415L53.8283 145.617L52.7646 158.329" stroke="#FBF3ED" stroke-width="0.548675" stroke-miterlimit="10"/>
</g>
<path d="M57.1535 157.745C61.1042 157.745 64.3069 155.34 64.3069 152.372C64.3069 149.405 61.1042 147 57.1535 147C53.2027 147 50 149.405 50 152.372C50 155.34 53.2027 157.745 57.1535 157.745Z" stroke="#FBF3ED" stroke-width="0.435456" stroke-miterlimit="10"/>
<path d="M77.4209 161.642V157.387H102.341L102.354 155.238H106.889L106.87 161.642H77.4209Z" fill="#6E33D5"/>
<path d="M106.615 155.51L106.598 161.37H77.6923V157.658H102.611L102.624 155.51H106.615ZM107.162 154.965H102.083L102.08 155.507L102.07 157.113H77.1479V161.914H107.141L107.143 161.372L107.161 155.512L107.163 154.965H107.162Z" fill="#FBF5ED"/>
<path d="M47.6928 124.766H8.75977V142.621H47.6928V124.766Z" fill="#F27361"/>
<mask id="mask9_999_732" style="mask-type:luminance" maskUnits="userSpaceOnUse" x="8" y="124" width="40" height="19">
<path d="M47.6923 124.766H8.75928V142.621H47.6923V124.766Z" fill="white"/>
</mask>
<g mask="url(#mask9_999_732)">
<path d="M15.2097 124.765H7.90381V142.621H15.2097V124.765Z" fill="#EFA39C" stroke="#FBF5ED" stroke-width="0.54432" stroke-miterlimit="10"/>
</g>
<path d="M47.6928 124.766H8.75977V142.621H47.6928V124.766Z" stroke="#FBF5ED" stroke-width="0.54432" stroke-miterlimit="10"/>
<path d="M104.552 125.412H65.6187V142.691H104.552V125.412Z" fill="#F27361"/>
<mask id="mask10_999_732" style="mask-type:luminance" maskUnits="userSpaceOnUse" x="65" y="125" width="40" height="18">
<path d="M104.553 125.412H65.6201V142.691H104.553V125.412Z" fill="white"/>
</mask>
<g mask="url(#mask10_999_732)">
<path d="M105.126 125.412H97.8213V142.691H105.126V125.412Z" fill="#EFA39C" stroke="#FBF5ED" stroke-width="0.54432" stroke-miterlimit="10"/>
</g>
<path d="M104.552 125.412H65.6187V142.691H104.552V125.412Z" stroke="#FBF5ED" stroke-width="0.54432" stroke-miterlimit="10"/>
<path d="M91.3577 155.13H75.9219V163.5H91.3577V155.13Z" fill="#9179D1"/>
<path d="M91.0857 155.402V163.228H76.1942V155.402H91.0857ZM91.63 154.858H75.6499V163.773H91.63V154.858Z" fill="#FBF5ED"/>
<path d="M39.2378 166.746L37.2217 197.764H54.2295V167.891" fill="#6E33D5"/>
<mask id="mask11_999_732" style="mask-type:luminance" maskUnits="userSpaceOnUse" x="37" y="166" width="18" height="32">
<path d="M39.2393 166.746L37.2231 197.764H54.231V167.891" fill="white"/>
</mask>
<g mask="url(#mask11_999_732)">
<path d="M56.6098 197.764H26.1094V214.71H56.6098V197.764Z" fill="#F27361" stroke="#FBF5ED" stroke-width="0.54432" stroke-miterlimit="10"/>
<path d="M46.1902 191.299C49.5102 191.299 52.2017 188.705 52.2017 185.506C52.2017 182.307 49.5102 179.714 46.1902 179.714C42.8701 179.714 40.1787 182.307 40.1787 185.506C40.1787 188.705 42.8701 191.299 46.1902 191.299Z" fill="#FBF5ED"/>
</g>
<path d="M39.2378 166.746L37.2217 197.764H54.2295V167.891" stroke="#FBF5ED" stroke-width="0.54432" stroke-miterlimit="10"/>
<path d="M76.2043 199.428L76.864 209.951L86.4506 215.536H59.1616V199.428H76.2043Z" fill="#8AFCD0" stroke="#6E33D5" stroke-width="0.54432" stroke-miterlimit="10"/>
<path d="M74.081 166.697L76.0983 197.715H59.0894V167.842" fill="#6E33D5"/>
<mask id="mask12_999_732" style="mask-type:luminance" maskUnits="userSpaceOnUse" x="59" y="166" width="18" height="32">
<path d="M74.081 166.697L76.0983 197.715H59.0894V167.842" fill="white"/>
</mask>
<g mask="url(#mask12_999_732)">
<path d="M56.7115 214.66H87.2119V197.714H56.7115V214.66Z" fill="#F27361" stroke="#FBF5ED" stroke-width="0.54432" stroke-miterlimit="10"/>
<path d="M67.1321 191.25C70.4521 191.25 73.1435 188.657 73.1435 185.457C73.1435 182.258 70.4521 179.665 67.1321 179.665C63.812 179.665 61.1206 182.258 61.1206 185.457C61.1206 188.657 63.812 191.25 67.1321 191.25Z" fill="#FBF5ED"/>
</g>
<path d="M74.081 166.697L76.0983 197.715H59.0894V167.842" stroke="#FBF5ED" stroke-width="0.54432" stroke-miterlimit="10"/>
<path d="M37.0744 199.428L36.4147 209.951L26.8281 215.537H54.1171V199.428H37.0744Z" fill="#8AFCD0" stroke="#6E33D5" stroke-width="0.54432" stroke-miterlimit="10"/>
<path d="M29.0311 128.773H27.144V130.66H29.0311V128.773Z" fill="#FBF3ED"/>
<path d="M30.9188 128.773H29.0317V130.66H30.9188V128.773Z" fill="#FBF3ED"/>
<path d="M32.8035 130.66H30.9165V132.547H32.8035V130.66Z" fill="#FBF3ED"/>
<path d="M34.6917 128.773H32.8047V130.66H34.6917V128.773Z" fill="#FBF3ED"/>
<path d="M36.578 128.773H34.6909V130.66H36.578V128.773Z" fill="#FBF3ED"/>
<path d="M27.1444 130.66H25.2573V132.547H27.1444V130.66Z" fill="#FBF3ED"/>
<path d="M27.1444 132.547H25.2573V134.434H27.1444V132.547Z" fill="#FBF3ED"/>
<path d="M29.0311 134.433H27.144V136.32H29.0311V134.433Z" fill="#FBF3ED"/>
<path d="M30.9188 136.321H29.0317V138.208H30.9188V136.321Z" fill="#FBF3ED"/>
<path d="M32.8035 138.208H30.9165V140.095H32.8035V138.208Z" fill="#FBF3ED"/>
<path d="M36.5778 132.547H38.4648V130.66H36.5778V132.547Z" fill="#FBF3ED"/>
<path d="M36.5778 134.433H38.4648V132.546H36.5778V134.433Z" fill="#FBF3ED"/>
<path d="M34.6921 136.321H36.5791V134.434H34.6921V136.321Z" fill="#FBF3ED"/>
<path d="M32.8039 138.208H34.6909V136.321H32.8039V138.208Z" fill="#FBF3ED"/>
<path d="M77.8021 128.773H75.915V130.66H77.8021V128.773Z" fill="#FBF3ED"/>
<path d="M79.6903 128.773H77.8032V130.66H79.6903V128.773Z" fill="#FBF3ED"/>
<path d="M81.575 130.66H79.688V132.547H81.575V130.66Z" fill="#FBF3ED"/>
<path d="M83.4627 128.773H81.5757V130.66H83.4627V128.773Z" fill="#FBF3ED"/>
<path d="M85.3494 128.773H83.4624V130.66H85.3494V128.773Z" fill="#FBF3ED"/>
<path d="M75.9158 130.66H74.0288V132.547H75.9158V130.66Z" fill="#FBF3ED"/>
<path d="M75.9158 132.547H74.0288V134.434H75.9158V132.547Z" fill="#FBF3ED"/>
<path d="M77.8021 134.433H75.915V136.32H77.8021V134.433Z" fill="#FBF3ED"/>
<path d="M79.6903 136.321H77.8032V138.208H79.6903V136.321Z" fill="#FBF3ED"/>
<path d="M81.575 138.208H79.688V140.095H81.575V138.208Z" fill="#FBF3ED"/>
<path d="M85.3493 132.547H87.2363V130.66H85.3493V132.547Z" fill="#FBF3ED"/>
<path d="M85.3493 134.433H87.2363V132.546H85.3493V134.433Z" fill="#FBF3ED"/>
<path d="M83.4631 136.321H85.3501V134.434H83.4631V136.321Z" fill="#FBF3ED"/>
<path d="M81.5754 138.208H83.4624V136.321H81.5754V138.208Z" fill="#FBF3ED"/>
</g>
<g clip-path="url(#clip2_999_732)">
<path d="M236.368 34.8821L236.318 132.961H91.917V34.8904L236.368 34.8821Z" fill="#FBF5ED" stroke="#6E33D5" stroke-width="0.82944" stroke-miterlimit="10"/>
<path d="M136.127 97.2808C131.149 103.766 146.081 113.293 164.159 112.888C184.854 112.424 196.645 102.55 192.19 97.077C187.078 90.7953 173.065 98.6984 164.159 98.6984C155.252 98.6984 141.396 90.4123 136.127 97.2786V97.2808Z" fill="#FBF5ED"/>
<mask id="mask13_999_732" style="mask-type:luminance" maskUnits="userSpaceOnUse" x="135" y="94" width="59" height="19">
<path d="M136.127 97.2807C131.149 103.766 146.081 113.293 164.159 112.888C184.854 112.424 196.645 102.55 192.19 97.0769C187.078 90.7952 173.065 98.6983 164.159 98.6983C155.252 98.6983 141.396 90.4122 136.127 97.2785V97.2807Z" fill="white"/>
</mask>
<g mask="url(#mask13_999_732)">
<path d="M147 94.5439L139.403 109.746" stroke="#6E33D5" stroke-width="1.11974" stroke-miterlimit="10"/>
<path d="M156.17 96.3671L150.406 112.989" stroke="#6E33D5" stroke-width="1.11974" stroke-miterlimit="10"/>
<path d="M164.093 98.2931V115.521" stroke="#6E33D5" stroke-width="1.11974" stroke-miterlimit="10"/>
<path d="M181.677 94.4702L189.276 109.672" stroke="#6E33D5" stroke-width="1.11974" stroke-miterlimit="10"/>
<path d="M172.509 96.2931L178.271 112.915" stroke="#6E33D5" stroke-width="1.11974" stroke-miterlimit="10"/>
</g>
<path d="M136.127 97.2808C131.149 103.766 146.081 113.293 164.159 112.888C184.854 112.424 196.645 102.55 192.19 97.077C187.078 90.7953 173.065 98.6984 164.159 98.6984C155.252 98.6984 141.396 90.4123 136.127 97.2786V97.2808Z" stroke="#6E33D5" stroke-width="1.11974" stroke-miterlimit="10"/>
<path d="M148.454 53.42H80.4146V84.6256H148.454V53.42Z" fill="#6E33D5"/>
<mask id="mask14_999_732" style="mask-type:luminance" maskUnits="userSpaceOnUse" x="80" y="53" width="69" height="32">
<path d="M148.453 53.4199H80.4141V84.6255H148.453V53.4199Z" fill="white"/>
</mask>
<g mask="url(#mask14_999_732)">
<path d="M91.9661 53.4199H80.4141V84.6255H91.9661V53.4199Z" fill="#9179D1" stroke="#FBF5ED" stroke-width="0.82944" stroke-miterlimit="10"/>
</g>
<path d="M148.454 53.42H80.4146V84.6256H148.454V53.42Z" stroke="#6E33D5" stroke-width="0.82944" stroke-miterlimit="10"/>
<path d="M247.82 53.5424H179.781V84.748H247.82V53.5424Z" fill="#6E33D5"/>
<mask id="mask15_999_732" style="mask-type:luminance" maskUnits="userSpaceOnUse" x="179" y="53" width="69" height="32">
<path d="M247.82 53.5422H179.781V84.7478H247.82V53.5422Z" fill="white"/>
</mask>
<g mask="url(#mask15_999_732)">
<path d="M247.82 53.5422H236.368V84.7478H247.82V53.5422Z" fill="#9179D1" stroke="#FBF5ED" stroke-width="0.82944" stroke-miterlimit="10"/>
</g>
<path d="M247.82 53.5424H179.781V84.748H247.82V53.5424Z" stroke="#6E33D5" stroke-width="0.82944" stroke-miterlimit="10"/>
<path d="M105.464 72.6423H99.4731V76.3126H105.464V72.6423Z" fill="#8AFCD0"/>
<path d="M111.454 68.972H105.464V72.6423H111.454V68.972Z" fill="#8AFCD0"/>
<path d="M117.445 65.3018H111.454V68.972H117.445V65.3018Z" fill="#8AFCD0"/>
<path d="M123.435 61.6315H117.444V65.3017H123.435V61.6315Z" fill="#8AFCD0"/>
<path d="M129.457 65.2831H123.466V68.9534H129.457V65.2831Z" fill="#8AFCD0"/>
<path d="M135.502 68.9534H129.511V72.6236H135.502V68.9534Z" fill="#8AFCD0"/>
<path d="M141.546 72.6216H135.556V76.2919H141.546V72.6216Z" fill="#8AFCD0"/>
<path d="M192.344 72.6423H186.353V76.3126H192.344V72.6423Z" fill="#8AFCD0"/>
<path d="M198.334 68.972H192.343V72.6423H198.334V68.972Z" fill="#8AFCD0"/>
<path d="M204.325 65.3018H198.334V68.972H204.325V65.3018Z" fill="#8AFCD0"/>
<path d="M210.315 61.6315H204.325V65.3017H210.315V61.6315Z" fill="#8AFCD0"/>
<path d="M216.337 65.281H210.346V68.9513H216.337V65.281Z" fill="#8AFCD0"/>
<path d="M222.381 68.9513H216.391V72.6216H222.381V68.9513Z" fill="#8AFCD0"/>
<path d="M228.426 72.6215H222.435V76.2917H228.426V72.6215Z" fill="#8AFCD0"/>
<path d="M236.37 25.2937H91.9707V34.8385H236.37V25.2937Z" fill="#FBF5ED" stroke="#6E33D5" stroke-width="0.82944" stroke-miterlimit="10"/>
<path d="M122.44 16.6053H114.486V34.8385H122.44V16.6053Z" fill="#6E33D5"/>
<path d="M134.311 16.6053H126.357V34.8385H134.311V16.6053Z" fill="#6E33D5"/>
<path d="M202.84 25.2793V13.7086L213.133 2.53186L223.887 13.9056V25.2793H202.84Z" fill="#FBF5ED"/>
<mask id="mask16_999_732" style="mask-type:luminance" maskUnits="userSpaceOnUse" x="202" y="2" width="22" height="24">
<path d="M202.84 25.2791V13.7084L213.133 2.53174L223.887 13.9054V25.2791H202.84Z" fill="white"/>
</mask>
<g mask="url(#mask16_999_732)">
<path d="M226.534 13.9115H200.419V26.3614H226.534V13.9115Z" fill="#8AFCD0" stroke="#6E33D5" stroke-width="0.82944" stroke-miterlimit="10"/>
<path d="M219.269 -0.000244141H206.543V6.6021H219.269V-0.000244141Z" fill="#6E33D5"/>
</g>
<path d="M202.84 25.2793V13.7086L213.133 2.53186L223.887 13.9056V25.2793H202.84Z" stroke="#6E33D5" stroke-width="0.82944" stroke-miterlimit="10"/>
<path d="M132.454 125.082L128.781 181.564H159.753V127.168" fill="#FBF5ED"/>
<mask id="mask17_999_732" style="mask-type:luminance" maskUnits="userSpaceOnUse" x="128" y="125" width="32" height="57">
<path d="M132.454 125.082L128.781 181.564H159.753V127.168" fill="white"/>
</mask>
<g mask="url(#mask17_999_732)">
<path d="M164.084 181.564H108.545V212.422H164.084V181.564Z" fill="#F27361" stroke="#FBF5ED" stroke-width="1.0368" stroke-miterlimit="10"/>
<path d="M145.111 169.79C151.157 169.79 156.058 165.069 156.058 159.244C156.058 153.42 151.157 148.698 145.111 148.698C139.065 148.698 134.165 153.42 134.165 159.244C134.165 165.069 139.065 169.79 145.111 169.79Z" fill="#FBF5ED" stroke="#6E33D5" stroke-width="1.0368" stroke-miterlimit="10"/>
</g>
<path d="M132.454 125.082L128.781 181.564H159.753V127.168" stroke="#6E33D5" stroke-width="1.0368" stroke-miterlimit="10"/>
<path d="M200.731 185.931L201.932 205.091L219.788 215.265H168.026V185.931H200.731Z" fill="#F27361" stroke="#6E33D5" stroke-width="1.0368" stroke-miterlimit="10"/>
<path d="M195.9 124.992L199.572 181.475H168.601V127.078" fill="#FBF5ED"/>
<mask id="mask18_999_732" style="mask-type:luminance" maskUnits="userSpaceOnUse" x="168" y="124" width="32" height="58">
<path d="M195.9 124.992L199.572 181.475H168.601V127.078" fill="white"/>
</mask>
<g mask="url(#mask18_999_732)">
<path d="M164.268 212.332H219.808V181.475H164.268V212.332Z" fill="#F27361" stroke="#FBF5ED" stroke-width="1.0368" stroke-miterlimit="10"/>
<path d="M183.244 169.699C189.29 169.699 194.191 164.977 194.191 159.153C194.191 153.328 189.29 148.607 183.244 148.607C177.199 148.607 172.298 153.328 172.298 159.153C172.298 164.977 177.199 169.699 183.244 169.699Z" fill="#FBF5ED" stroke="#6E33D5" stroke-width="1.0368" stroke-miterlimit="10"/>
</g>
<path d="M195.9 124.992L199.572 181.475H168.601V127.078" stroke="#6E33D5" stroke-width="1.0368" stroke-miterlimit="10"/>
<path d="M127.608 185.931L126.407 205.091L109.854 215.265H160.312V185.931H127.608Z" fill="#F27361" stroke="#6E33D5" stroke-width="1.0368" stroke-miterlimit="10"/>
</g>
<defs>
<clipPath id="clip0_999_732">
<rect width="98.3089" height="124.167" fill="white" transform="translate(224 92)"/>
</clipPath>
<clipPath id="clip1_999_732">
<rect width="112.998" height="108.808" fill="white" transform="translate(0 107)"/>
</clipPath>
<clipPath id="clip2_999_732">
<rect width="168.235" height="215.783" fill="white" transform="translate(80)"/>
</clipPath>
</defs>
</svg>
