<svg width="752" height="1429" viewBox="0 0 752 1429" fill="none" xmlns="http://www.w3.org/2000/svg">
<path fill-rule="evenodd" clip-rule="evenodd" d="M1223.92 -83H1543.95C1543.95 -83 1521.08 174.088 1336.78 174.088H1019.72C899.776 174.088 899.236 294.503 899.236 294.503V1460C899.236 1460 646.465 1418.04 646.465 1161.49V294.503C646.465 294.503 645.925 174.088 526.05 174.088H242.922C14.3689 174.088 0 -83 0 -83H319.556C430.055 -83 533.605 -29.0999 596.95 61.4307L604.303 71.8869C645.83 131.411 725.82 131.395 771.126 131.386L772.749 131.386L774.514 131.386C819.845 131.397 899.686 131.415 939.172 71.8869L946.525 61.4307C1009.94 -29.0999 1113.42 -83 1223.92 -83ZM129.925 431.182H379.93C485.234 431.182 538.258 688.27 538.258 688.27H387.013C226.876 688.27 198.097 611.287 167.756 530.124C164.252 520.75 160.727 511.32 156.976 501.947L152.794 491.49L129.925 431.182Z" fill="#6E33D5"/>
</svg>
