<svg width="493" height="622" viewBox="0 0 493 622" fill="none" xmlns="http://www.w3.org/2000/svg">
<path d="M31.8911 47.9473L454.448 1.32666L457.634 28.9635L35.0766 75.5841L31.8911 47.9473Z" fill="#6E33D5"/>
<mask id="mask0_1054_674" style="mask-type:luminance" maskUnits="userSpaceOnUse" x="31" y="1" width="427" height="76">
<path d="M31.8911 48.2883L454.448 1.34521L457.634 29.1732L35.0766 76.1163L31.8911 48.2883Z" fill="white"/>
</mask>
<g mask="url(#mask0_1054_674)">
<path d="M135.575 0.768915L116.126 21.156L182.762 81.8535L202.212 61.4664L135.575 0.768915Z" fill="#FBF5ED" stroke="#6E33D5" stroke-width="2" stroke-miterlimit="10"/>
<path d="M224.669 -6.12025L205.22 14.2668L271.856 74.9643L291.306 54.5772L224.669 -6.12025Z" fill="#FBF5ED" stroke="#6E33D5" stroke-width="2" stroke-miterlimit="10"/>
<path d="M307.253 -17.9484L287.803 2.43872L354.44 63.1362L373.889 42.7491L307.253 -17.9484Z" fill="#FBF5ED" stroke="#6E33D5" stroke-width="2" stroke-miterlimit="10"/>
</g>
<path d="M31.2722 48.157L453.829 1.5364L457.015 29.1732L34.4577 75.7938L31.2722 48.157Z" stroke="#FBF3ED" stroke-width="2" stroke-miterlimit="10"/>
<path d="M457.132 393.066H34.8552V114.248L457.312 114.316L457.132 393.066Z" fill="#6E33D5" stroke="#FBF3ED" stroke-width="2.5" stroke-miterlimit="10"/>
<path d="M200.901 149.408H1.92822V240.665H200.901V149.408Z" fill="#8AFCD0"/>
<mask id="mask1_1054_674" style="mask-type:luminance" maskUnits="userSpaceOnUse" x="1" y="149" width="200" height="92">
<path d="M200.901 149.408H1.92822V240.665H200.901V149.408Z" fill="white"/>
</mask>
<g mask="url(#mask1_1054_674)">
<path d="M34.3662 149.408H-2.45312V240.665H34.3662V149.408Z" fill="#FBF5ED" stroke="#6E33D5" stroke-width="2.5" stroke-miterlimit="10"/>
</g>
<path d="M200.901 149.408H1.92822V240.665H200.901V149.408Z" stroke="#6E33D5" stroke-width="2.5" stroke-miterlimit="10"/>
<path d="M75.1831 207.812H57.6646V218.542H75.1831V207.812Z" fill="#6E33D5"/>
<path d="M92.7017 197.082H75.1831V207.812H92.7017V197.082Z" fill="#6E33D5"/>
<path d="M110.22 186.345H92.7018V197.075H110.22V186.345Z" fill="#6E33D5"/>
<path d="M127.739 175.615H110.22V186.345H127.739V175.615Z" fill="#6E33D5"/>
<path d="M145.35 186.29H127.832V197.02H145.35V186.29Z" fill="#6E33D5"/>
<path d="M163.024 197.02H145.505V207.75H163.024V197.02Z" fill="#6E33D5"/>
<path d="M180.703 207.756H163.184V218.486H180.703V207.756Z" fill="#6E33D5"/>
<path d="M491.489 152.713H292.516V241.017H491.489V152.713Z" fill="#8AFCD0"/>
<mask id="mask2_1054_674" style="mask-type:luminance" maskUnits="userSpaceOnUse" x="292" y="152" width="200" height="90">
<path d="M491.489 152.713H292.516V241.017H491.489V152.713Z" fill="white"/>
</mask>
<g mask="url(#mask2_1054_674)">
<path d="M494.403 152.713H457.634V241.017H494.403V152.713Z" fill="#FBF5ED" stroke="#6E33D5" stroke-width="2.5" stroke-miterlimit="10"/>
</g>
<path d="M491.489 152.713H292.516V241.017H491.489V152.713Z" stroke="#6E33D5" stroke-width="2.5" stroke-miterlimit="10"/>
<path d="M329.249 207.812H311.73V218.542H329.249V207.812Z" fill="#6E33D5"/>
<path d="M346.767 197.082H329.249V207.812H346.767V197.082Z" fill="#6E33D5"/>
<path d="M364.286 186.345H346.767V197.075H364.286V186.345Z" fill="#6E33D5"/>
<path d="M381.811 175.615H364.292V186.345H381.811V175.615Z" fill="#6E33D5"/>
<path d="M399.416 186.29H381.897V197.02H399.416V186.29Z" fill="#6E33D5"/>
<path d="M417.095 197.02H399.577V207.75H417.095V197.02Z" fill="#6E33D5"/>
<path d="M434.769 207.756H417.25V218.486H434.769V207.756Z" fill="#6E33D5"/>
<path d="M157.064 366.648L146.761 525.176H233.686V372.502" fill="#6E33D5"/>
<mask id="mask3_1054_674" style="mask-type:luminance" maskUnits="userSpaceOnUse" x="146" y="366" width="88" height="160">
<path d="M157.064 366.648L146.761 525.176H233.686V372.502" fill="white"/>
</mask>
<g mask="url(#mask3_1054_674)">
<path d="M245.839 525.176H89.9666V611.778H245.839V525.176Z" fill="#F27361" stroke="#FBF5ED" stroke-width="2.5" stroke-miterlimit="10"/>
<path d="M192.59 492.131C209.555 492.131 223.308 478.877 223.308 462.527C223.308 446.177 209.555 432.923 192.59 432.923C175.625 432.923 161.872 446.177 161.872 462.527C161.872 478.877 175.625 492.131 192.59 492.131Z" fill="#FBF5ED"/>
</g>
<path d="M157.064 366.648L146.761 525.176H233.686V372.502" stroke="#FBF5ED" stroke-width="2.5" stroke-miterlimit="10"/>
<path d="M346.792 537.775L350.158 591.556L397.795 620.101H258.079V537.775H346.792Z" fill="#F27361" stroke="#FBF3ED" stroke-width="2.5" stroke-miterlimit="10"/>
<path d="M335.134 366.401L345.443 524.922H258.519V372.255" fill="#6E33D5"/>
<mask id="mask4_1054_674" style="mask-type:luminance" maskUnits="userSpaceOnUse" x="258" y="366" width="88" height="159">
<path d="M335.134 366.401L345.443 524.922H301.981H258.519V372.255" fill="white"/>
</mask>
<g mask="url(#mask4_1054_674)">
<path d="M246.365 611.525H402.238V524.922H246.365V611.525Z" fill="#F27361" stroke="#FBF5ED" stroke-width="2.5" stroke-miterlimit="10"/>
<path d="M299.614 491.877C316.579 491.877 330.332 478.623 330.332 462.273C330.332 445.924 316.579 432.669 299.614 432.669C282.649 432.669 268.896 445.924 268.896 462.273C268.896 478.623 282.649 491.877 299.614 491.877Z" fill="#FBF5ED"/>
</g>
<path d="M335.134 366.401L345.443 524.922H258.519V372.255" stroke="#FBF5ED" stroke-width="2.5" stroke-miterlimit="10"/>
<path d="M144.645 537.775L141.272 591.556L93.6423 620.101H234.589V537.775H144.645Z" fill="#F27361" stroke="#FBF3ED" stroke-width="2.5" stroke-miterlimit="10"/>
<path d="M457.634 75.5842H34.3665V104.05H457.634V75.5842Z" fill="#6E33D5"/>
<mask id="mask5_1054_674" style="mask-type:luminance" maskUnits="userSpaceOnUse" x="34" y="75" width="424" height="30">
<path d="M457.376 75.3987H34.696V104.211H457.376V75.3987Z" fill="white"/>
</mask>
<g mask="url(#mask5_1054_674)">
<path d="M300.368 111.389L319.711 127.057L397.437 72.3727L378.094 56.7043L300.368 111.389Z" fill="#FBF5ED" stroke="#6E33D5" stroke-width="2" stroke-miterlimit="10"/>
<path d="M204.073 111.5L223.416 127.169L297.381 75.1265L278.038 59.4644L204.073 111.5Z" fill="#FBF5ED" stroke="#6E33D5" stroke-width="2" stroke-miterlimit="10"/>
<path d="M106.071 113.567L125.414 129.235L215.244 66.036L195.901 50.3677L106.071 113.567Z" fill="#FBF5ED" stroke="#6E33D5" stroke-width="2" stroke-miterlimit="10"/>
</g>
<path d="M457.634 75.5842H34.3665V104.05H457.634V75.5842Z" stroke="#FBF3ED" stroke-width="2" stroke-miterlimit="10"/>
<path d="M157.788 265.448C140.777 280.733 176.953 314.576 226.866 322.732C284.007 332.063 321.489 310.962 312.046 293.629C301.21 273.74 258.63 288.282 234.137 283.722C208.915 279.019 175.802 249.266 157.788 265.454V265.448Z" fill="#6E33D5"/>
<mask id="mask6_1054_674" style="mask-type:luminance" maskUnits="userSpaceOnUse" x="153" y="260" width="161" height="66">
<path d="M157.788 265.448C140.777 280.733 176.953 314.576 226.866 322.732C284.007 332.063 321.489 310.962 312.046 293.629C301.21 273.74 258.63 288.282 234.137 283.722C208.915 279.019 175.802 249.266 157.788 265.454V265.448Z" fill="white"/>
</mask>
<g mask="url(#mask6_1054_674)">
<path d="M189.082 263.499L160.4 301.401" stroke="#FBF5ED" stroke-width="2" stroke-miterlimit="10"/>
<path d="M213.358 273.214L188.995 315.955" stroke="#FBF5ED" stroke-width="2" stroke-miterlimit="10"/>
<path d="M234.162 282.57L225.332 329.94" stroke="#FBF5ED" stroke-width="2" stroke-miterlimit="10"/>
<path d="M284.472 281.067L297.566 326.76" stroke="#FBF5ED" stroke-width="2" stroke-miterlimit="10"/>
<path d="M258.321 281.382L265.654 330.033" stroke="#FBF5ED" stroke-width="2" stroke-miterlimit="10"/>
</g>
<path d="M157.788 265.448C140.777 280.733 176.953 314.576 226.866 322.732C284.007 332.063 321.489 310.962 312.046 293.629C301.21 273.74 258.63 288.282 234.137 283.722C208.915 279.019 175.802 249.266 157.788 265.454V265.448Z" stroke="#FBF5ED" stroke-width="2" stroke-miterlimit="10"/>
</svg>
