{"accessors" : [{"bufferView" : 0, "byteOffset" : 0, "componentType" : 5123, "count" : 2280, "type" : "SCALAR", "max" : [1802], "min" : [0]}, {"bufferView" : 1, "byteOffset" : 0, "componentType" : 5126, "count" : 1803, "type" : "VEC3", "max" : [8.441493034362793, 14.179387092590332, -2.359163999557495], "min" : [-8.441493034362793, -7.8619537353515625, -21.18177032470703], "name" : "POSITION"}, {"bufferView" : 1, "byteOffset" : 12, "componentType" : 5126, "count" : 1803, "type" : "VEC3", "max" : [0.9942324757575989, 0.9998961687088013, 1.000001072883606], "min" : [-0.9942324757575989, -0.9848259687423706, -0.9941564202308655], "name" : "NORMAL"}, {"bufferView" : 1, "byteOffset" : 24, "componentType" : 5126, "count" : 1803, "type" : "VEC2", "max" : [0.8630052208900452, 0.9640137553215027], "min" : [0.1832229495048523, 0.12351441383361816], "name" : "TEXCOORD_0"}], "asset" : {"generator" : "Aspose.3D 23.9.0", "version" : "2.0"}, "buffers" : [{"uri" : "data:application/octet-stream;base64,", "byteLength" : 77528}], "bufferViews" : [{"buffer" : 0, "byteOffset" : 0, "byteLength" : 4560, "target" : 34963}, {"buffer" : 0, "byteOffset" : 4564, "byteLength" : 72960, "byteStride" : 32, "target" : 34962}], "materials" : [{"name" : "lambert1", "pbrMetallicRoughness" : {"baseColorFactor" : [0.5, 0.5, 0.5, 1], "metallicFactor" : 0, "roughnessFactor" : 0.6}, "emissiveFactor" : [0, 0, 0], "alphaMode" : "OPAQUE", "doubleSided" : true}], "meshes" : [{"primitives" : [{"attributes" : {"POSITION" : 1, "NORMAL" : 2, "TEXCOORD_0" : 3}, "indices" : 0, "material" : 0, "mode" : 4}]}], "nodes" : [{"mesh" : 0, "name" : "headOccluder_lambert1_0"}, {"children" : [0], "name" : "headOccluder"}, {"children" : [1], "name" : "RootNode"}, {"children" : [2], "matrix" : [1, 0, 0, 0, 0, 0, 1, 0, 0, -1, 0, 0, 0, 0, 0, 1], "name" : "adb4bd07a0a14856ba58648c807e5b59.fbx"}, {"children" : [3], "matrix" : [1, 0, 0, 0, 0, 2.220446049250313E-16, -1, 0, 0, 1, 2.220446049250313E-16, 0, 0, 0, 0, 1], "name" : "Sketchfab_model"}], "scene" : 0, "scenes" : [{"nodes" : [4]}]}