{
	"asset":{
		"generator":"Khronos glTF Blender I/O v3.6.27",
		"version":"2.0"
	},
	"extensionsUsed":[
		"KHR_materials_transmission",
		"KHR_materials_ior"
	],
	"scene":0,
	"scenes":[
		{
			"name":"Scene",
			"nodes":[
				1
			]
		}
	],
	"nodes":[
		{
			"mesh":0,
			"name":"glasses_mirror",
			"scale":[
				1.0606480836868286,
				1.06064772605896,
				1.060647964477539
			],
			"translation":[
				1.1776025295257568,
				5.297895431518555,
				-0.2330971360206604
			]
		},
		{
			"children":[
				0
			],
			"mesh":1,
			"name":"glasses._base",
			"rotation":[
				0.6987879276275635,
				-0.09457969665527344,
				-0.09404194355010986,
				0.7027845978736877
			],
			"scale":[
				0.029605768620967865,
				0.0019202317344024777,
				0.029605770483613014
			],
			"translation":[
				0.0037773933727294207,
				0.03781377524137497,
				-0.005852833390235901
			]
		}
	],
	"materials":[
		{
			"doubleSided":true,
			"extensions":{
				"KHR_materials_transmission":{
					"transmissionFactor":1
				},
				"KHR_materials_ior":{
					"ior":1.399999976158142
				}
			},
			"name":"glasses_mirror.001",
			"pbrMetallicRoughness":{
				"baseColorFactor":[
					0.800000011920929,
					0.800000011920929,
					0.800000011920929,
					0.07200002670288086
				],
				"metallicFactor":0
			}
		},
		{
			"doubleSided":true,
			"name":"glasses_base.001",
			"pbrMetallicRoughness":{
				"baseColorFactor":[
					0.5376929640769958,
					0.11167184263467789,
					0.13673853874206543,
					1
				],
				"metallicFactor":0.18400000035762787,
				"roughnessFactor":0.4519999623298645
			}
		}
	],
	"meshes":[
		{
			"name":"Cylinder.001",
			"primitives":[
				{
					"attributes":{
						"POSITION":0,
						"NORMAL":1,
						"TEXCOORD_0":2
					},
					"indices":3,
					"material":0
				}
			]
		},
		{
			"name":"Cylinder",
			"primitives":[
				{
					"attributes":{
						"POSITION":4,
						"NORMAL":5,
						"TEXCOORD_0":6
					},
					"indices":7,
					"material":1
				}
			]
		}
	],
	"accessors":[
		{
			"bufferView":0,
			"componentType":5126,
			"count":688,
			"max":[
				0.7992594242095947,
				0.4390248656272888,
				1.4585750102996826
			],
			"min":[
				-3.2075304985046387,
				-0.4390248656272888,
				-0.7992594242095947
			],
			"type":"VEC3"
		},
		{
			"bufferView":1,
			"componentType":5126,
			"count":688,
			"type":"VEC3"
		},
		{
			"bufferView":2,
			"componentType":5126,
			"count":688,
			"type":"VEC2"
		},
		{
			"bufferView":3,
			"componentType":5123,
			"count":3240,
			"type":"SCALAR"
		},
		{
			"bufferView":4,
			"componentType":5126,
			"count":1204,
			"max":[
				2.7705721855163574,
				6.297893524169922,
				1.465977668762207
			],
			"min":[
				-3.1652987003326416,
				-42.915279388427734,
				-1.4441020488739014
			],
			"type":"VEC3"
		},
		{
			"bufferView":5,
			"componentType":5126,
			"count":1204,
			"type":"VEC3"
		},
		{
			"bufferView":6,
			"componentType":5126,
			"count":1204,
			"type":"VEC2"
		},
		{
			"bufferView":7,
			"componentType":5123,
			"count":4404,
			"type":"SCALAR"
		}
	],
	"bufferViews":[
		{
			"buffer":0,
			"byteLength":8256,
			"byteOffset":0,
			"target":34962
		},
		{
			"buffer":0,
			"byteLength":8256,
			"byteOffset":8256,
			"target":34962
		},
		{
			"buffer":0,
			"byteLength":5504,
			"byteOffset":16512,
			"target":34962
		},
		{
			"buffer":0,
			"byteLength":6480,
			"byteOffset":22016,
			"target":34963
		},
		{
			"buffer":0,
			"byteLength":14448,
			"byteOffset":28496,
			"target":34962
		},
		{
			"buffer":0,
			"byteLength":14448,
			"byteOffset":42944,
			"target":34962
		},
		{
			"buffer":0,
			"byteLength":9632,
			"byteOffset":57392,
			"target":34962
		},
		{
			"buffer":0,
			"byteLength":8808,
			"byteOffset":67024,
			"target":34963
		}
	],
	"buffers":[
		{
			"byteLength":75832,
			"uri":"data:application/octet-stream;base64,"
		}
	]
}
